PathFileType  4	(X/Y/Z) C:\Users\wagnerel85475\Documents\Thesis\opencap-core\Data\3375ffbc-daeb-4a43-b4f7-ac9899cd4c71\MarkerData\PreAugmentation
DataRate	CameraRate	NumFrames	NumMarkers	Units	OrigDataRate	OrigDataStartFrame	OrigNumFrames
60.0	60.0	11	20	m	60.0	366	584
Frame#	Time	Neck			RShoulder			RElbow			RWrist			LShoulder			LElbow			LWrist			midHip			RHip			RKnee			RAnkle			LHip			LKnee			LAnkle			LBigToe			LSmallToe			LHeel			RBigToe			RSmallToe			RHeel			
		X1	Y1	Z1	X2	Y2	Z2	X3	Y3	Z3	X4	Y4	Z4	X5	Y5	Z5	X6	Y6	Z6	X7	Y7	Z7	X8	Y8	Z8	X9	Y9	Z9	X10	Y10	Z10	X11	Y11	Z11	X12	Y12	Z12	X13	Y13	Z13	X14	Y14	Z14	X15	Y15	Z15	X16	Y16	Z16	X17	Y17	Z17	X18	Y18	Z18	X19	Y19	Z19	X20	Y20	Z20	

366	6.0833333	0.4113500	1.7614600	-0.2708800	0.4320500	1.7902900	-0.0815400	0.3632300	1.5095500	0.0379200	0.4335500	1.2344100	0.1321500	0.3915900	1.7342500	-0.4547000	0.3433600	1.4381900	-0.4994000	0.4156700	1.1359500	-0.5141100	0.3962500	1.2398800	-0.1830600	0.4181300	1.2500000	-0.0673000	0.6114700	0.8157400	-0.0631000	0.8210900	0.3486500	-0.0062000	0.3934700	1.2289700	-0.2993900	0.3555700	0.7815900	-0.2329600	0.2160200	0.2359100	-0.2080600	0.4550000	0.2104000	-0.2493500	0.3764700	0.1940700	-0.2649300	0.0913100	0.1740500	-0.1946000	1.0608100	0.2988500	0.0291900	1.0374900	0.3017300	0.0445200	0.7702300	0.2991900	-0.0119900
367	6.1000000	0.4171300	1.7609300	-0.2684000	0.4319500	1.7909000	-0.0814600	0.3705600	1.5049600	0.0397100	0.4344700	1.2344400	0.1321800	0.4041700	1.7330700	-0.4540700	0.3500300	1.4361500	-0.5011800	0.4329700	1.1345200	-0.5152300	0.4064300	1.2379000	-0.1827300	0.4232900	1.2459800	-0.0693400	0.6090800	0.8113200	-0.0618100	0.8374100	0.3502800	-0.0047200	0.3979000	1.2247900	-0.2970800	0.3618100	0.7748600	-0.2349500	0.2199400	0.2420600	-0.2092400	0.4560200	0.2112100	-0.2496600	0.3747000	0.1931700	-0.2659000	0.0972900	0.1773200	-0.1946100	1.0691500	0.3022600	0.0271100	1.0357800	0.3006300	0.0486800	0.7919700	0.2996000	-0.0131600
368	6.1166667	0.4177700	1.7583600	-0.2683000	0.4383500	1.7898400	-0.0793000	0.3698800	1.5047900	0.0400500	0.4400800	1.2368500	0.1341100	0.4149200	1.7296100	-0.4540100	0.3561700	1.4354300	-0.5036100	0.4399000	1.1368900	-0.5179600	0.4142200	1.2356100	-0.1856600	0.4409500	1.2420400	-0.0728300	0.6285100	0.8050000	-0.0565700	0.8494500	0.3495800	-0.0021700	0.4057500	1.2201700	-0.2992200	0.3676700	0.7667000	-0.2380600	0.2285400	0.2476600	-0.2129500	0.4650600	0.2127600	-0.2487600	0.3845800	0.1957200	-0.2634000	0.0982300	0.1769400	-0.1974200	1.0787100	0.2988000	0.0227100	1.0390500	0.2979300	0.0478200	0.7943100	0.2998900	-0.0098900
369	6.1333333	0.4292500	1.7571300	-0.2681500	0.4436400	1.7897100	-0.0817700	0.3771800	1.5046700	0.0418100	0.4602000	1.2369900	0.1398300	0.4215800	1.7311700	-0.4510500	0.3504900	1.4360400	-0.5061700	0.4697200	1.1382200	-0.5279500	0.4128100	1.2355300	-0.1851500	0.4410900	1.2436200	-0.0723600	0.6538300	0.8016700	-0.0543400	0.8572100	0.3527300	-0.0010600	0.4102400	1.2204500	-0.2969400	0.3680600	0.7637200	-0.2374000	0.2298300	0.2390400	-0.2128000	0.4653800	0.2102600	-0.2489300	0.3831700	0.1948200	-0.2644700	0.0979600	0.1781000	-0.1998700	1.0923500	0.2977000	0.0312000	1.0641500	0.3030600	0.0547000	0.7943900	0.2987700	-0.0046200
370	6.1500000	0.4412100	1.7557900	-0.2634700	0.4501300	1.7882800	-0.0795700	0.3894200	1.5039400	0.0462500	0.4787500	1.2372100	0.1455600	0.4264000	1.7305400	-0.4487100	0.3568300	1.4330100	-0.5085200	0.4817100	1.1448700	-0.5280600	0.4203100	1.2356500	-0.1833500	0.4411700	1.2420500	-0.0727700	0.6579000	0.7992500	-0.0512500	0.8617000	0.3646600	0.0004500	0.4118200	1.2157700	-0.2967500	0.3799100	0.7636000	-0.2381700	0.2222900	0.2425600	-0.2103700	0.4626500	0.2087300	-0.2525100	0.3877600	0.1933000	-0.2647100	0.1071300	0.1775200	-0.2007500	0.9843800	0.2748900	-0.0113500	1.0707600	0.3072600	0.0592200	0.7948600	0.3144300	-0.0012900
371	6.1666667	0.4526900	1.7570100	-0.2587600	0.4622200	1.7890400	-0.0751400	0.4095600	1.5031800	0.0520700	0.4859700	1.2416700	0.1474800	0.4446100	1.7290400	-0.4454600	0.3633100	1.4335800	-0.5103700	0.4989700	1.1503700	-0.5337300	0.4248900	1.2356700	-0.1805200	0.4524200	1.2444300	-0.0727000	0.6714600	0.8046600	-0.0530400	0.8800800	0.3579500	0.0055700	0.4220600	1.2184200	-0.2920200	0.3860000	0.7712400	-0.2351200	0.2314700	0.2464400	-0.2133800	0.4683500	0.2103700	-0.2500100	0.3926000	0.1938300	-0.2636000	0.1207700	0.1840800	-0.2035500	1.1108900	0.2949700	0.0383000	1.0739200	0.2972800	0.0631800	0.8284200	0.3046100	0.0059800
372	6.1833333	0.4644100	1.7577600	-0.2586700	0.4625400	1.7885500	-0.0751000	0.4097600	1.5074200	0.0570200	0.4977500	1.2460500	0.1512600	0.4553500	1.7278700	-0.4453500	0.3819400	1.4351600	-0.5171700	0.5343300	1.1580900	-0.5420700	0.4381600	1.2338700	-0.1811800	0.4709200	1.2449100	-0.0666300	0.6791900	0.8019500	-0.0520700	0.9019900	0.3564100	0.0115900	0.4410600	1.2162600	-0.2941900	0.3860400	0.7620400	-0.2358600	0.2179100	0.2472900	-0.2140700	0.4712900	0.2132000	-0.2511100	0.3913600	0.1964400	-0.2659300	0.1080800	0.1846700	-0.2063600	1.0299300	0.2712700	-0.0036900	1.0889200	0.2961400	0.0638100	0.8454600	0.3103700	0.0054500
373	6.2000000	0.4700000	1.7596700	-0.2563600	0.4804800	1.7870700	-0.0686600	0.4104100	1.5102000	0.0567000	0.5075700	1.2546600	0.1622800	0.4736600	1.7284000	-0.4466300	0.3941900	1.4424100	-0.5212100	0.5394900	1.1692300	-0.5437000	0.4603100	1.2341200	-0.1761900	0.4770100	1.2446900	-0.0639800	0.7097500	0.8065500	-0.0478400	0.9099200	0.3619000	0.0128400	0.4517500	1.2166800	-0.2894100	0.4041800	0.7655100	-0.2330500	0.2147000	0.2479400	-0.2121300	0.4822900	0.2162800	-0.2461800	0.4024900	0.1983500	-0.2626200	0.1090300	0.1841200	-0.2042400	1.0157000	0.2709500	-0.0065900	1.0966000	0.2972900	0.0669200	0.8559400	0.3105600	0.0051600
374	6.2166667	0.4702700	1.7640200	-0.2564900	0.4809300	1.7908900	-0.0686600	0.4168700	1.5141700	0.0637100	0.5253600	1.2658600	0.1678200	0.4783300	1.7321500	-0.4444200	0.4059000	1.4412300	-0.5210800	0.5574800	1.1758200	-0.5503900	0.4678100	1.2386500	-0.1744800	0.4889300	1.2470300	-0.0648400	0.7165500	0.8113600	-0.0466400	0.9287700	0.3617600	0.0157300	0.4588100	1.2188000	-0.2869200	0.4039800	0.7670700	-0.2335300	0.2114200	0.2453800	-0.2165200	0.4738900	0.2133000	-0.2520600	0.4020400	0.1983400	-0.2653900	0.1039200	0.1851300	-0.2098600	1.0666400	0.2750300	0.0024700	1.1212000	0.2952500	0.0636000	0.8691900	0.3159100	0.0113300
375	6.2333333	0.4814600	1.7672100	-0.2563100	0.4864700	1.7961000	-0.0668500	0.4246600	1.5190300	0.0700200	0.5222100	1.2724500	0.1752100	0.4905000	1.7331900	-0.4388700	0.4064700	1.4463100	-0.5255400	0.5795600	1.1919300	-0.5579800	0.4778000	1.2387600	-0.1740500	0.4949600	1.2486800	-0.0622500	0.7236100	0.8175700	-0.0452800	0.9437100	0.3664200	0.0225800	0.4688000	1.2217400	-0.2869400	0.4107600	0.7662600	-0.2301900	0.2201800	0.2533500	-0.2239100	0.4790900	0.2151800	-0.2494000	0.3958900	0.1964400	-0.2693100	0.1060100	0.1887400	-0.2133000	1.0612900	0.2790300	-0.0005700	1.1301700	0.2960900	0.0676500	0.8838600	0.3176300	0.0183800
376	6.2500000	0.4872200	1.7689300	-0.2542100	0.4926400	1.8017900	-0.0648800	0.4385800	1.5275900	0.0836400	0.5351400	1.2770900	0.1834400	0.5063700	1.7314000	-0.4361900	0.4126600	1.4483200	-0.5282400	0.5857700	1.2006900	-0.5606400	0.4796100	1.2388600	-0.1746300	0.5012500	1.2534400	-0.0606300	0.7364900	0.8236500	-0.0422600	0.9462600	0.3719400	0.0249200	0.4760300	1.2279700	-0.2892200	0.4104000	0.7639900	-0.2309400	0.2145900	0.2560500	-0.2219600	0.4822700	0.2149900	-0.2507700	0.4079100	0.1992000	-0.2676000	0.1067500	0.1949300	-0.2163000	1.2029100	0.3024700	0.0389700	1.1500700	0.2949000	0.0687500	0.8921400	0.3225500	0.0179300
